<svg width="374" height="456" viewBox="0 0 374 456" fill="none" xmlns="http://www.w3.org/2000/svg">
<g clip-path="url(#clip0_703_334)">
<path d="M350.758 7.79266L11.1768 18.6068L24.9102 447.971L364.492 437.156L350.758 7.79266Z" fill="#292A2E"/>
<path opacity="0.58" d="M350.758 7.79266L11.1768 18.6068L24.9102 447.971L364.492 437.156L350.758 7.79266Z" fill="white"/>
<path d="M338.337 0.313466L0.314453 28.138L35.6629 455.686L373.686 427.861L338.337 0.313466Z" fill="white"/>
<path d="M338.07 0.628227L373.373 427.596L35.9296 455.372L0.629606 28.4042L338.073 0.628227M338.604 0L0 27.872L35.3956 456L374 428.128L338.604 0Z" fill="black"/>
<path d="M315.344 30.4073L161.061 43.1072L161.981 54.2389L316.264 41.539L315.344 30.4073Z" fill="#292A2E"/>
<path d="M317.964 60.7098L163.621 73.3762L163.669 73.9567L318.012 61.2903L317.964 60.7098Z" fill="black"/>
<path d="M319.655 81.1521L165.312 93.8185L165.36 94.399L319.703 81.7326L319.655 81.1521Z" fill="black"/>
<path d="M321.344 101.595L167.001 114.261L167.049 114.842L321.392 102.175L321.344 101.595Z" fill="black"/>
<path d="M323.035 122.037L168.692 134.704L168.74 135.284L323.083 122.618L323.035 122.037Z" fill="black"/>
<path d="M239.701 149.469L170.384 155.158L170.432 155.739L239.749 150.05L239.701 149.469Z" fill="black"/>
<path d="M327.295 174.962L39.8916 198.62L40.8119 209.751L328.216 186.094L327.295 174.962Z" fill="#292A2E"/>
<path d="M187.883 337.87L70.5703 347.497L70.6182 348.078L187.931 338.45L187.883 337.87Z" fill="black"/>
<path d="M189.873 361.928L72.5605 371.555L72.6084 372.136L189.921 362.508L189.873 361.928Z" fill="black"/>
<path d="M191.862 385.986L74.5488 395.614L74.5967 396.194L191.909 386.567L191.862 385.986Z" fill="black"/>
<path d="M193.851 410.045L76.5381 419.672L76.5859 420.253L193.899 410.625L193.851 410.045Z" fill="black"/>
<path d="M58.3552 353.22C61.7631 353.22 64.5258 350.464 64.5258 347.063C64.5258 343.663 61.7631 340.906 58.3552 340.906C54.9472 340.906 52.1846 343.663 52.1846 347.063C52.1846 350.464 54.9472 353.22 58.3552 353.22Z" fill="#292A2E"/>
<path d="M64.4528 426.975C67.8608 426.975 70.6234 424.219 70.6234 420.818C70.6234 417.418 67.8608 414.661 64.4528 414.661C61.0449 414.661 58.2822 417.418 58.2822 420.818C58.2822 424.219 61.0449 426.975 64.4528 426.975Z" fill="#292A2E"/>
<path d="M62.4646 402.926C65.8725 402.926 68.6352 400.169 68.6352 396.768C68.6352 393.368 65.8725 390.611 62.4646 390.611C59.0566 390.611 56.2939 393.368 56.2939 396.768C56.2939 400.169 59.0566 402.926 62.4646 402.926Z" fill="#292A2E"/>
<path d="M60.4099 378.073C63.8178 378.073 66.5805 375.316 66.5805 371.916C66.5805 368.515 63.8178 365.759 60.4099 365.759C57.0019 365.759 54.2393 368.515 54.2393 371.916C54.2393 375.316 57.0019 378.073 60.4099 378.073Z" fill="#292A2E"/>
<path d="M339.845 325.36L222.532 334.987L222.58 335.568L339.893 325.94L339.845 325.36Z" fill="black"/>
<path d="M341.835 349.419L224.522 359.046L224.57 359.627L341.883 349.999L341.835 349.419Z" fill="black"/>
<path d="M343.823 373.477L226.511 383.104L226.559 383.685L343.871 374.057L343.823 373.477Z" fill="black"/>
<path d="M345.814 397.536L228.501 407.163L228.549 407.744L345.862 398.116L345.814 397.536Z" fill="black"/>
<path d="M210.261 340.716C213.669 340.716 216.432 337.959 216.432 334.559C216.432 331.158 213.669 328.402 210.261 328.402C206.853 328.402 204.091 331.158 204.091 334.559C204.091 337.959 206.853 340.716 210.261 340.716Z" fill="#292A2E"/>
<path d="M216.359 414.471C219.767 414.471 222.53 411.714 222.53 408.314C222.53 404.913 219.767 402.156 216.359 402.156C212.951 402.156 210.188 404.913 210.188 408.314C210.188 411.714 212.951 414.471 216.359 414.471Z" fill="#292A2E"/>
<path d="M214.371 390.422C217.779 390.422 220.541 387.665 220.541 384.264C220.541 380.864 217.779 378.107 214.371 378.107C210.963 378.107 208.2 380.864 208.2 384.264C208.2 387.665 210.963 390.422 214.371 390.422Z" fill="#292A2E"/>
<path d="M212.316 365.569C215.724 365.569 218.487 362.812 218.487 359.412C218.487 356.011 215.724 353.255 212.316 353.255C208.908 353.255 206.146 356.011 206.146 359.412C206.146 362.812 208.908 365.569 212.316 365.569Z" fill="#292A2E"/>
<path d="M90.6932 110.099C101.911 110.099 111.005 101.026 111.005 89.8325C111.005 78.6394 101.911 69.5656 90.6932 69.5656C79.4755 69.5656 70.3818 78.6394 70.3818 89.8325C70.3818 101.026 79.4755 110.099 90.6932 110.099Z" fill="#2563EB"/>
<path d="M141.566 139.84C136.578 147.255 129.981 153.453 122.264 157.975C114.546 162.498 105.907 165.227 96.988 165.961C88.0686 166.696 79.098 165.416 70.7423 162.216C62.3866 159.017 54.8605 153.981 48.7227 147.482C53.5539 139.872 60.0883 133.484 67.8123 128.819C75.5362 124.155 84.2392 121.342 93.2369 120.601C102.235 119.861 111.282 121.213 119.667 124.551C128.053 127.889 135.548 133.122 141.564 139.84H141.566Z" fill="#2563EB"/>
<path d="M92.1568 47.8134C107.382 47.8299 122.012 53.7174 132.988 64.2455C143.965 74.7736 150.439 89.1274 151.056 104.307C151.674 119.486 146.388 134.317 136.303 145.698C126.219 157.08 112.115 164.132 96.9416 165.38C95.3077 165.514 93.6535 165.582 92.0232 165.582C76.7978 165.566 62.168 159.679 51.1915 149.15C40.215 138.622 33.7414 124.268 33.1236 109.089C32.5058 93.9095 37.7917 79.0791 47.8765 67.6976C57.9613 56.3161 72.0645 49.2643 87.2384 48.016C88.8722 47.8815 90.5247 47.8134 92.1568 47.8134ZM92.1574 47.2312C90.5154 47.2312 88.857 47.2987 87.1917 47.4355C79.3918 48.077 71.795 50.2452 64.835 53.8163C57.8749 57.3874 51.688 62.2915 46.6274 68.2485C41.5669 74.2055 37.7319 81.0988 35.3413 88.5347C32.9507 95.9707 32.0515 103.804 32.6949 111.586C33.9235 126.449 40.7038 140.308 51.6918 150.417C62.6798 160.526 77.0733 166.147 92.0191 166.165C93.6614 166.165 95.3169 166.096 96.9853 165.96C104.785 165.318 112.381 163.149 119.341 159.578C126.301 156.007 132.487 151.103 137.547 145.146C142.607 139.189 146.442 132.296 148.833 124.86C151.223 117.424 152.122 109.591 151.479 101.809C150.25 86.9463 143.47 73.0868 132.481 62.978C121.493 52.8691 107.1 47.2488 92.1539 47.2312H92.1574Z" fill="black"/>
<path d="M330.158 208.19L42.6426 231.785L42.6904 232.366L330.206 208.77L330.158 208.19Z" fill="black"/>
<path d="M331.723 228.534L44.3164 252.151L44.3643 252.731L331.771 229.113L331.723 228.534Z" fill="black"/>
<path d="M333.414 248.969L46.0068 272.587L46.0547 273.167L333.462 249.549L333.414 248.969Z" fill="black"/>
<path d="M335.104 269.404L47.6963 293.022L47.7441 293.602L335.152 269.984L335.104 269.404Z" fill="black"/>
<path d="M118.723 307.895L49.4053 313.584L49.4531 314.165L118.771 308.476L118.723 307.895Z" fill="black"/>
<path d="M38.6542 5.95622C40.8555 6.27943 42.8471 7.43741 44.2143 9.18907C45.5814 10.9407 46.2187 13.1511 45.9936 15.3598L42.9418 48.2559C42.7884 49.9813 41.9548 51.5754 40.6241 52.6879C39.2934 53.8004 37.5746 54.3402 35.8452 54.1888C34.1754 54.0034 32.6451 53.1721 31.5827 51.8735C30.5204 50.5748 30.0106 48.9123 30.163 47.2428L33.3017 13.4198C33.3877 12.36 33.8645 11.3696 34.6401 10.6403C35.4156 9.91102 36.4346 9.49464 37.5 9.47174C38.0884 9.47006 38.6707 9.59097 39.2096 9.82672C39.7485 10.0625 40.2321 10.4079 40.6295 10.8408C41.027 11.2738 41.3294 11.7847 41.5176 12.341C41.7058 12.8973 41.7755 13.4867 41.7223 14.0714L39.5195 37.8136C39.4929 38.0995 39.3536 38.3631 39.1323 38.5465C38.9109 38.7299 38.6256 38.8181 38.3391 38.7917C38.1971 38.7786 38.0591 38.7376 37.933 38.6712C37.8069 38.6048 37.6951 38.5142 37.6041 38.4046C37.5131 38.2951 37.4447 38.1687 37.4027 38.0327C37.3607 37.8967 37.346 37.7538 37.3594 37.6121L39.5534 13.9637C39.6104 13.4469 39.4742 12.9273 39.171 12.5045C38.8678 12.0817 38.4188 11.7855 37.9102 11.6726C37.6286 11.6183 37.3388 11.6234 37.0593 11.6875C36.7797 11.7517 36.5168 11.8735 36.2873 12.0452C36.0578 12.2168 35.8668 12.4345 35.7267 12.6842C35.5865 12.9338 35.5003 13.21 35.4735 13.495L32.3348 47.3191C32.2238 48.3809 32.5114 49.446 33.1421 50.3084C33.7728 51.1708 34.7016 51.769 35.7489 51.9874C36.3296 52.0976 36.9269 52.0856 37.5026 51.952C38.0783 51.8185 38.6197 51.5665 39.0921 51.212C39.5645 50.8576 39.9575 50.4087 40.246 49.8939C40.5344 49.3791 40.7119 48.8099 40.7671 48.2227L43.8387 15.1194C44.0036 13.4145 43.4835 11.714 42.3927 10.3915C41.3019 9.06901 39.7295 8.23267 38.0211 8.06623C36.3646 7.94343 34.726 8.4739 33.4573 9.54365C32.1885 10.6134 31.391 12.1371 31.2361 13.7872L28.6003 42.1867C28.5872 42.3282 28.5463 42.4658 28.4799 42.5915C28.4135 42.7172 28.323 42.8286 28.2134 42.9194C28.1038 43.0102 27.9774 43.0785 27.8414 43.1206C27.7053 43.1626 27.5623 43.1774 27.4205 43.1643C27.2786 43.1513 27.1407 43.1105 27.0147 43.0443C26.8886 42.9781 26.7769 42.8877 26.6858 42.7784C26.5948 42.669 26.5262 42.5429 26.4841 42.4071C26.4419 42.2713 26.427 42.1286 26.4402 41.987L29.0753 13.5875C29.1821 12.4509 29.5174 11.3474 30.0612 10.343C30.6049 9.33856 31.346 8.45376 32.2401 7.74146C33.1341 7.02916 34.1629 6.50397 35.265 6.19724C36.367 5.89051 37.5197 5.80854 38.6542 5.95622Z" fill="#367CFF"/>
</g>
<defs>
<clipPath id="clip0_703_334">
<rect width="374" height="456" fill="white"/>
</clipPath>
</defs>
</svg>
