<svg width="24" height="24" viewBox="0 0 24 24" fill="none" xmlns="http://www.w3.org/2000/svg">
<path d="M12.0039 22.0029C6.48107 22.0029 2.00391 17.5258 2.00391 12.0029C2.00391 6.48008 6.48107 2.00293 12.0039 2.00293C17.5267 2.00293 22.0039 6.48008 22.0039 12.0029C22.0039 17.5258 17.5267 22.0029 12.0039 22.0029ZM12.0039 20.0029C16.4222 20.0029 20.0039 16.4212 20.0039 12.0029C20.0039 7.58465 16.4222 4.00293 12.0039 4.00293C7.58563 4.00293 4.00391 7.58465 4.00391 12.0029C4.00391 16.4212 7.58563 20.0029 12.0039 20.0029ZM8.50391 14.0029H14.0039C14.28 14.0029 14.5039 13.7791 14.5039 13.5029C14.5039 13.2268 14.28 13.0029 14.0039 13.0029H10.0039C8.6232 13.0029 7.50391 11.8836 7.50391 10.5029C7.50391 9.12222 8.6232 8.00293 10.0039 8.00293H11.0039V6.00293H13.0039V8.00293H15.5039V10.0029H10.0039C9.72777 10.0029 9.50391 10.2268 9.50391 10.5029C9.50391 10.7791 9.72777 11.0029 10.0039 11.0029H14.0039C15.3846 11.0029 16.5039 12.1222 16.5039 13.5029C16.5039 14.8836 15.3846 16.0029 14.0039 16.0029H13.0039V18.0029H11.0039V16.0029H8.50391V14.0029Z" fill="#2563EB"/>
</svg>
