<svg width="463" height="444" viewBox="0 0 463 444" fill="none" xmlns="http://www.w3.org/2000/svg">
<path opacity="0.03" d="M72.6956 444C24.2735 444 -10.8654 397.377 3.08504 351.008C10.9741 324.785 26.6473 299.2 56.4529 283.681C138.017 241.214 130.832 252.859 169.278 181.497C207.724 110.135 311.926 93.2058 366.526 143.473C443.751 214.571 391.806 271.211 440.676 320.081C441.185 320.59 441.687 321.102 442.183 321.617C486.34 367.465 453.112 444 389.458 444H72.6956Z" fill="#292A2E"/>
<path d="M279.395 192.335V154.298H97.6162V192.334C97.6182 212.224 104.142 231.564 116.188 247.391C128.234 263.218 145.137 274.659 164.307 279.959C167.121 280.749 169.6 282.437 171.365 284.767C173.131 287.096 174.086 289.938 174.086 292.861C174.086 295.784 173.131 298.626 171.365 300.955C169.6 303.284 167.121 304.973 164.307 305.763C145.137 311.063 128.233 322.504 116.187 338.331C104.141 354.159 97.6173 373.5 97.6162 393.39V431.428H279.395V393.39C279.393 373.501 272.869 354.16 260.823 338.333C248.777 322.507 231.874 311.066 212.704 305.765C209.89 304.976 207.411 303.288 205.645 300.959C203.879 298.629 202.924 295.787 202.924 292.864C202.924 289.941 203.879 287.098 205.645 284.769C207.411 282.44 209.89 280.752 212.704 279.962C231.874 274.662 248.778 263.221 260.823 247.394C272.869 231.567 279.393 212.227 279.395 192.337" fill="#2563EB"/>
<path opacity="0.8" d="M279.395 192.335V154.298H97.6162V192.334C97.6182 212.224 104.142 231.564 116.188 247.391C128.234 263.218 145.137 274.659 164.307 279.959C167.121 280.749 169.6 282.437 171.365 284.767C173.131 287.096 174.086 289.938 174.086 292.861C174.086 295.784 173.131 298.626 171.365 300.955C169.6 303.284 167.121 304.973 164.307 305.763C145.137 311.063 128.233 322.504 116.187 338.331C104.141 354.159 97.6173 373.5 97.6162 393.39V431.428H279.395V393.39C279.393 373.501 272.869 354.16 260.823 338.333C248.777 322.507 231.874 311.066 212.704 305.765C209.89 304.976 207.411 303.288 205.645 300.959C203.879 298.629 202.924 295.787 202.924 292.864C202.924 289.941 203.879 287.098 205.645 284.769C207.411 282.44 209.89 280.752 212.704 279.962C231.874 274.662 248.778 263.221 260.823 247.394C272.869 231.567 279.393 212.227 279.395 192.337" fill="white"/>
<path d="M279.969 432.002H97.042V393.391C97.0734 373.382 103.65 353.933 115.768 338.012C127.886 322.091 144.88 310.571 164.157 305.211C166.85 304.454 169.222 302.839 170.912 300.609C172.601 298.38 173.516 295.66 173.516 292.862C173.516 290.065 172.601 287.345 170.912 285.116C169.222 282.886 166.85 281.27 164.157 280.514C144.88 275.154 127.886 263.634 115.768 247.713C103.65 231.791 97.0737 212.343 97.042 192.334V153.724H279.969V192.335C279.938 212.343 273.362 231.791 261.244 247.713C249.127 263.634 232.133 275.154 212.857 280.514C210.163 281.27 207.791 282.886 206.102 285.116C204.412 287.345 203.498 290.065 203.498 292.862C203.498 295.66 204.412 298.38 206.102 300.609C207.791 302.839 210.163 304.454 212.857 305.211C232.133 310.572 249.126 322.091 261.244 338.013C273.362 353.934 279.938 373.383 279.969 393.391V432.002ZM98.1927 430.853H278.821V393.391C278.79 373.634 272.296 354.43 260.331 338.708C248.366 322.987 231.586 311.611 212.552 306.318C209.616 305.495 207.03 303.735 205.188 301.306C203.345 298.876 202.348 295.911 202.348 292.862C202.348 289.814 203.345 286.849 205.188 284.419C207.03 281.99 209.616 280.23 212.552 279.407C231.586 274.114 248.366 262.738 260.331 247.017C272.296 231.296 278.79 212.092 278.821 192.335V154.872H98.1904V192.334C98.2217 212.091 104.716 231.296 116.681 247.017C128.647 262.738 145.427 274.114 164.462 279.407C167.397 280.23 169.983 281.99 171.825 284.42C173.667 286.849 174.664 289.814 174.664 292.862C174.664 295.911 173.667 298.876 171.825 301.305C169.983 303.734 167.397 305.495 164.462 306.318C145.427 311.611 128.647 322.986 116.681 338.708C104.715 354.429 98.2215 373.634 98.1904 393.391L98.1927 430.853Z" fill="#292A2E"/>
<path d="M289.955 147.374C289.956 149.184 289.248 150.921 287.983 152.215C286.718 153.509 284.996 154.255 283.187 154.295C283.134 154.298 283.085 154.298 283.032 154.298H94.2881C94.2347 154.298 94.1854 154.298 94.1325 154.295C92.3102 154.254 90.5775 153.496 89.3104 152.186C88.0434 150.876 87.3442 149.118 87.3647 147.296C87.3852 145.473 88.1237 143.732 89.4199 142.451C90.7161 141.169 92.4654 140.451 94.2881 140.451H283.029C283.939 140.451 284.839 140.629 285.68 140.977C286.52 141.325 287.283 141.835 287.926 142.478C288.57 143.121 289.08 143.884 289.428 144.724C289.776 145.564 289.955 146.465 289.955 147.374Z" fill="#292A2E"/>
<path d="M191.718 367.621V285.411C191.648 282.288 192.606 279.228 194.443 276.701C196.28 274.175 198.896 272.322 201.889 271.426C234.053 262.575 263.976 233.722 265.446 200.581C265.524 198.804 263.963 197.633 262.184 197.633H114.827C113.047 197.633 111.487 198.804 111.565 200.581C113.036 233.722 142.959 262.575 175.123 271.426C179.674 272.685 185.295 278.263 185.295 285.617V367.627C185.295 373.541 183.068 378.563 178.887 382.745C175.434 386.198 123.44 431.427 123.44 431.427H253.573C253.573 431.427 201.099 385.682 198.209 382.791C194.027 378.612 191.718 373.534 191.718 367.621Z" fill="#FAFAFA"/>
<path d="M290.004 436.541C290.005 438.35 289.297 440.088 288.032 441.382C286.767 442.675 285.045 443.422 283.236 443.461C283.183 443.464 283.134 443.464 283.081 443.464H94.3374C94.2845 443.464 94.2352 443.464 94.1823 443.461C92.3601 443.42 90.6274 442.663 89.3604 441.352C88.0933 440.042 87.3941 438.285 87.4145 436.462C87.4349 434.64 88.1733 432.899 89.4694 431.617C90.7655 430.336 92.5147 429.617 94.3374 429.617H283.081C284.917 429.617 286.678 430.347 287.976 431.645C289.275 432.944 290.004 434.705 290.004 436.541Z" fill="#292A2E"/>
<path d="M336.858 443.046C381.423 443.046 417.551 406.919 417.551 362.354C417.551 317.788 381.423 281.661 336.858 281.661C292.293 281.661 256.166 317.788 256.166 362.354C256.166 406.919 292.293 443.046 336.858 443.046Z" fill="white"/>
<path d="M360.397 439.964C317.601 452.941 272.226 428.687 259.246 385.892C246.267 343.097 270.523 297.722 313.318 284.745C356.113 271.767 401.49 296.019 414.467 338.814C427.445 381.609 403.191 426.984 360.397 439.964ZM313.556 285.526C271.193 298.374 247.182 343.292 260.03 385.654C272.879 428.017 317.796 452.029 360.159 439.18C402.522 426.332 426.533 381.414 413.685 339.052C400.837 296.689 355.919 272.678 313.556 285.526Z" fill="#292A2E"/>
<path opacity="0.45" d="M336.857 433.396C376.093 433.396 407.9 401.589 407.9 362.353C407.9 323.118 376.093 291.311 336.857 291.311C297.621 291.311 265.814 323.118 265.814 362.353C265.814 401.589 297.621 433.396 336.857 433.396Z" fill="#2563EB"/>
<path d="M336.857 366.625C339.217 366.625 341.129 364.712 341.129 362.353C341.129 359.994 339.217 358.082 336.857 358.082C334.498 358.082 332.586 359.994 332.586 362.353C332.586 364.712 334.498 366.625 336.857 366.625Z" fill="#292A2E"/>
<path d="M389.516 390.838C389.465 390.853 389.411 390.859 389.357 390.853C389.304 390.848 389.252 390.832 389.204 390.807L336.664 362.714C336.599 362.679 336.544 362.627 336.506 362.564C336.468 362.5 336.448 362.427 336.447 362.353L336.43 320.933C336.43 320.825 336.473 320.72 336.55 320.644C336.626 320.567 336.731 320.524 336.839 320.524C336.948 320.524 337.052 320.567 337.129 320.644C337.205 320.72 337.249 320.825 337.249 320.933L337.266 362.108L389.59 390.086C389.662 390.124 389.72 390.182 389.758 390.254C389.796 390.325 389.813 390.406 389.805 390.487C389.797 390.567 389.765 390.644 389.714 390.706C389.662 390.769 389.594 390.814 389.516 390.838Z" fill="#292A2E"/>
<path d="M122.915 246.523C122.915 246.523 121.239 255.216 113.1 255.7C104.961 256.185 106.726 262.669 106.726 262.669H137.829V247.129L122.915 246.523Z" fill="#2563EB"/>
<path d="M140.66 220.375C140.66 220.375 142.993 228.916 135.904 232.943C128.814 236.97 133.262 242.009 133.262 242.009L161.169 228.28L154.31 214.336L140.66 220.375Z" fill="#2563EB"/>
<path d="M137.708 226.022L116.679 146.677C115.083 137.912 117.483 134.112 121.185 130.421C127.687 123.937 154.625 110.135 154.625 110.135L186.943 110.047C195.512 110.047 203.94 118.497 203.94 127.066C203.94 135.635 195.228 142.902 186.656 142.902L146.858 146.876L157.646 219.527L137.708 226.022Z" fill="#262626"/>
<path d="M157.646 219.524L153.4 190.923L131.884 204.048L137.708 226.022L157.646 219.524Z" fill="#0C0C0C"/>
<path d="M162.524 126.191C162.524 126.191 148.938 129.219 135.483 142.674C127.325 150.832 127.994 165.595 129.218 193.988L142.581 174.25L157.239 147.815L162.524 126.191Z" fill="#0C0C0C"/>
<path d="M209.563 110.037L187.616 109.934L187.607 110.221H180.961C180.961 110.221 164.315 125.54 150.912 135.193C141.163 142.214 135.216 148.907 134.701 156.203C133.446 173.987 119.298 249.834 119.298 249.834L140.591 253.058L159.277 162.415C159.277 162.415 188.497 148.945 195.255 144.257C201.619 139.843 206.115 138.137 208.22 133.32C211.858 125.002 209.563 110.037 209.563 110.037Z" fill="#262626"/>
<path d="M184.94 115.566L149.335 116.038L169.308 127.967L185.929 119.385C186.33 119.17 186.647 118.826 186.83 118.41C187.012 117.993 187.049 117.527 186.935 117.087C186.821 116.646 186.562 116.257 186.201 115.981C185.839 115.706 185.395 115.56 184.94 115.566Z" fill="#292A2E"/>
<path opacity="0.2" d="M184.94 115.566L149.335 116.038L169.308 127.967L185.929 119.385C186.33 119.17 186.647 118.826 186.83 118.41C187.012 117.993 187.049 117.527 186.935 117.087C186.821 116.646 186.562 116.257 186.201 115.981C185.839 115.706 185.395 115.56 184.94 115.566Z" fill="white"/>
<path d="M149.539 51.6904L139.469 84.3217L119.298 110.732L131.081 124.258L155.079 97.4735C156.185 96.5995 157.05 95.458 157.592 94.1569L157.966 93.2525L171.826 59.715L149.539 51.6904Z" fill="#2563EB"/>
<path d="M165.053 17.0516C165.053 17.0516 160.995 13.9888 159.99 6.93862C159.211 1.47958 164.247 5.01616 164.247 5.01616C164.247 5.01616 163.725 1.08051 166.591 1.47097C169.458 1.86143 171.065 5.99633 171.065 5.99633" fill="#0C0C0C"/>
<path d="M181.414 1.93152C181.414 1.93152 195.643 3.4572 190.499 22.7381L189.24 22.8225L186.684 22.9948" fill="#0C0C0C"/>
<path d="M167.437 42.8745C167.499 42.8665 168.193 54.3857 181.575 53.3826C190.84 52.6884 194.143 42.8596 194.355 42.8596C193.356 42.6471 192.122 42.325 191.631 42.2142C190.562 41.9661 189.594 41.3983 188.855 40.5865C188.117 39.7746 187.643 38.7571 187.497 37.6693C187.226 36.0368 187.686 27.6837 187.544 26.0317L173.323 29.2054C173.522 32.6943 174.913 40.7827 170.038 42.2142C169.227 42.4502 168.354 42.6678 167.437 42.8745Z" fill="#E98862"/>
<path opacity="0.52" d="M173.125 38.9078C173.348 38.1899 173.491 37.4497 173.553 36.7006C173.709 34.9911 173.678 33.2697 173.46 31.5671C176.35 31.1764 179.073 29.9828 181.319 28.1218C181.583 29.098 183.035 33.3581 182.633 34.2848C181.872 36.0391 178.301 38.9078 173.125 38.9078Z" fill="#0C0C0C"/>
<path d="M176.059 36.6277C181.67 36.1246 188.384 32.58 188.481 24.9648L188.569 18.0932C188.666 10.478 184.744 4.25474 177.574 4.16229C170.404 4.06984 164.966 10.1766 164.869 17.7935L164.83 20.8368C164.836 21.8817 164.913 22.9249 165.06 23.9594C165.428 26.6955 165.997 30.8568 167.855 33.671C169.607 36.3256 172.475 36.9492 176.059 36.6277Z" fill="#E98862"/>
<path opacity="0.52" d="M173.456 29.667C172.298 29.7195 171.144 29.499 170.088 29.0233C170.045 29.0033 170.013 28.9677 169.996 28.924C169.98 28.8803 169.981 28.8319 169.999 28.789C170.017 28.746 170.051 28.7118 170.094 28.6935C170.137 28.6752 170.186 28.6743 170.229 28.6908C172.507 29.6618 174.574 29.5194 176.209 28.2797C176.242 28.2536 176.276 28.2292 176.311 28.2068C176.353 28.1829 176.403 28.1765 176.449 28.189C176.495 28.2016 176.535 28.232 176.559 28.2737C176.583 28.3153 176.589 28.3648 176.576 28.4111C176.564 28.4575 176.533 28.497 176.492 28.5209C176.479 28.5289 176.457 28.5456 176.427 28.568C175.569 29.222 174.534 29.6047 173.456 29.667Z" fill="#0C0C0C"/>
<path opacity="0.52" d="M173.511 31.3828C173.302 31.3955 173.092 31.3905 172.884 31.3679C172.836 31.3628 172.792 31.339 172.762 31.3017C172.732 31.2644 172.718 31.2166 172.723 31.1689C172.728 31.1211 172.751 31.0774 172.789 31.0471C172.826 31.0169 172.874 31.0028 172.922 31.0078C173.25 31.0682 173.587 31.0578 173.91 30.9775C174.234 30.8972 174.537 30.7488 174.798 30.5421C174.832 30.5082 174.878 30.4891 174.926 30.489C174.974 30.489 175.02 30.508 175.054 30.5418C175.088 30.5757 175.107 30.6217 175.107 30.6697C175.107 30.7177 175.088 30.7637 175.054 30.7977C174.623 31.1652 174.077 31.372 173.511 31.3828Z" fill="#0C0C0C"/>
<path d="M167.236 22.2983C167.723 22.2983 168.119 21.9029 168.119 21.4151C168.119 20.9274 167.723 20.532 167.236 20.532C166.748 20.532 166.353 20.9274 166.353 21.4151C166.353 21.9029 166.748 22.2983 167.236 22.2983Z" fill="#0C0C0C"/>
<path d="M175.866 21.7568C176.353 21.7568 176.749 21.3614 176.749 20.8736C176.749 20.3859 176.353 19.9905 175.866 19.9905C175.378 19.9905 174.982 20.3859 174.982 20.8736C174.982 21.3614 175.378 21.7568 175.866 21.7568Z" fill="#0C0C0C"/>
<path d="M188.006 27.2789C190.185 27.307 191.981 24.9981 192.008 22.819C192.036 20.6398 190.286 19.4162 188.104 19.3881L186.963 20.8368L186.131 27.2582L188.006 27.2789Z" fill="#E98862"/>
<path d="M185.839 23.7779C185.839 23.7779 185.103 13.0023 181.835 12.3368C179.659 11.8935 174.382 14.9782 169.494 14.0479C167.355 13.6402 165.325 14.1697 165.119 15.1797C165.037 15.5816 163.705 9.83206 167.053 5.46978C169.719 1.99694 178.445 1.01619 182.415 2.15542C193.406 5.30842 188.556 19.8607 188.556 19.8607L188.066 23.5758L185.839 23.7779Z" fill="#0C0C0C"/>
<g opacity="0.52">
<path d="M172.139 27.1239H172.125C171.423 27.117 170.246 27.0269 170.251 26.5015C170.256 26.0662 171.494 21.3795 171.635 20.8466C171.651 20.805 171.682 20.7707 171.721 20.7503C171.761 20.73 171.806 20.7251 171.849 20.7365C171.892 20.748 171.929 20.775 171.954 20.8123C171.978 20.8497 171.987 20.8946 171.98 20.9385C171.429 23.0143 170.61 26.2092 170.606 26.5049C171.085 26.714 171.606 26.8036 172.127 26.7662C172.174 26.7648 172.22 26.7823 172.255 26.8148C172.289 26.8474 172.309 26.8922 172.311 26.9396C172.312 26.987 172.295 27.0329 172.262 27.0674C172.23 27.1019 172.185 27.122 172.137 27.1234L172.139 27.1239Z" fill="#0C0C0C"/>
</g>
<path d="M169.743 16.6261C169.005 16.4231 168.226 16.4231 167.488 16.6261C167.126 16.7236 166.78 16.875 166.462 17.0751C166.149 17.2715 165.861 17.5064 165.606 17.7745C165.558 17.8223 165.531 17.8865 165.53 17.9536C165.529 18.0208 165.554 18.0858 165.6 18.1351C165.646 18.1843 165.708 18.214 165.776 18.218C165.843 18.2219 165.909 18.1999 165.96 18.1564L165.975 18.1426C166.211 17.9239 166.473 17.7358 166.756 17.5827C167.034 17.4308 167.333 17.3216 167.643 17.2589C168.254 17.1311 168.888 17.1666 169.481 17.3616L169.506 17.3703C169.604 17.4048 169.712 17.3991 169.805 17.3544C169.899 17.3096 169.971 17.2295 170.005 17.1317C170.04 17.0338 170.034 16.9263 169.99 16.8326C169.945 16.739 169.865 16.667 169.767 16.6324L169.743 16.6261Z" fill="#0C0C0C"/>
<path d="M174.969 17.0694C175.531 16.7969 176.154 16.678 176.777 16.7249C177.093 16.7453 177.404 16.8137 177.7 16.9276C178 17.0415 178.285 17.1928 178.548 17.3778L178.565 17.3887C178.621 17.4255 178.69 17.4389 178.756 17.4263C178.822 17.4137 178.881 17.376 178.919 17.3211C178.958 17.2662 178.974 17.1983 178.964 17.1318C178.954 17.0653 178.919 17.0053 178.865 16.9644C178.577 16.7323 178.26 16.5376 177.923 16.385C177.582 16.2289 177.219 16.125 176.846 16.0766C176.088 15.9735 175.316 16.077 174.612 16.3764C174.516 16.4176 174.441 16.495 174.403 16.5915C174.365 16.688 174.367 16.7957 174.408 16.8909C174.45 16.986 174.527 17.0609 174.623 17.0991C174.72 17.1372 174.828 17.1354 174.923 17.0941L174.945 17.0838L174.969 17.0694Z" fill="#0C0C0C"/>
<path d="M174.611 5.51917C175.107 3.14503 174.202 0.94722 172.589 0.610223C170.976 0.273227 169.266 1.92466 168.77 4.29879C168.274 6.67293 169.18 8.87072 170.793 9.20772C172.406 9.54472 174.115 7.8933 174.611 5.51917Z" fill="#0C0C0C"/>
<path d="M150.81 68.1898C151.232 73.1412 154.22 104.036 154.625 110.135H209.539C209.855 104.634 211.271 80.579 212.467 69.8211C213.609 59.556 215.211 54.8842 213.895 51.6944C211.575 46.0672 204.191 43.5555 199.189 42.8785C196.136 42.4651 191.542 42.1688 191.542 42.1688C191.542 42.1688 191.154 50.0355 181.881 50.4731C169.258 51.0691 170.101 42.1688 170.038 42.1688C167.993 42.1688 156.862 43.6555 154.079 45.47C152.492 46.4349 151.183 47.7964 150.282 49.4204C149.381 51.0444 148.919 52.8749 148.94 54.732C148.887 58.4259 150.331 62.5734 150.81 68.1898Z" fill="#2563EB"/>
<path d="M153.595 97.9609C153.556 97.9608 153.519 97.946 153.49 97.9196C153.461 97.8931 153.443 97.8569 153.44 97.8179L151.359 74.0231C151.357 74.0025 151.359 73.9816 151.365 73.9617C151.371 73.9418 151.381 73.9232 151.394 73.9072C151.407 73.8912 151.424 73.8779 151.442 73.8682C151.46 73.8586 151.48 73.8527 151.501 73.8509C151.522 73.8483 151.543 73.85 151.563 73.8559C151.583 73.8618 151.602 73.8717 151.618 73.885C151.634 73.8983 151.647 73.9148 151.657 73.9334C151.666 73.952 151.672 73.9724 151.673 73.9933L153.754 97.788C153.756 97.8085 153.754 97.8292 153.748 97.8488C153.742 97.8684 153.732 97.8866 153.718 97.9023C153.705 97.9181 153.689 97.931 153.671 97.9405C153.652 97.9499 153.632 97.9557 153.612 97.9574L153.595 97.9609Z" fill="#0C0C0C"/>
<path d="M157.576 111.783L165.116 105.665L163.847 106.024C163.435 106.132 162.998 106.079 162.623 105.876C162.249 105.674 161.965 105.337 161.83 104.933C161.767 104.722 161.748 104.501 161.774 104.283C161.799 104.064 161.869 103.853 161.979 103.663C162.089 103.473 162.237 103.307 162.413 103.175C162.589 103.044 162.79 102.949 163.004 102.898L178.844 99.045L180.207 104.091C180.63 105.658 180.575 107.316 180.05 108.851C179.524 110.387 178.553 111.731 177.259 112.711L171.389 117.14C171.089 117.376 170.716 117.501 170.334 117.494C169.952 117.486 169.584 117.347 169.293 117.1C169.034 116.871 168.856 116.566 168.784 116.228C168.711 115.891 168.749 115.539 168.891 115.225C168.872 115.219 168.855 115.211 168.84 115.199C168.826 115.187 168.813 115.172 168.804 115.155C168.796 115.138 168.79 115.119 168.789 115.1C168.787 115.081 168.79 115.062 168.796 115.044L167.715 115.864C167.381 116.128 166.959 116.255 166.535 116.219C166.11 116.184 165.715 115.989 165.429 115.674C165.184 115.383 165.048 115.015 165.047 114.634C165.046 114.254 165.179 113.885 165.423 113.593C165.406 113.59 165.39 113.584 165.375 113.576L164.93 113.913C164.63 114.148 164.257 114.273 163.875 114.266C163.493 114.259 163.125 114.12 162.834 113.872C162.52 113.595 162.326 113.206 162.293 112.789C162.259 112.371 162.389 111.957 162.654 111.633C162.648 111.624 162.643 111.614 162.639 111.604L159.499 114.151C159.343 114.277 159.164 114.372 158.972 114.429C158.78 114.486 158.578 114.505 158.379 114.484C158.18 114.463 157.986 114.403 157.81 114.308C157.634 114.212 157.478 114.083 157.352 113.927C157.226 113.772 157.131 113.593 157.074 113.401C157.017 113.209 156.998 113.007 157.019 112.808C157.04 112.608 157.099 112.415 157.195 112.239C157.29 112.063 157.42 111.907 157.575 111.78L157.576 111.783Z" fill="#E98862"/>
<path opacity="0.2" d="M162.831 111.696C162.848 111.69 162.864 111.681 162.877 111.669L165.898 109.16C165.928 109.134 165.947 109.097 165.95 109.057C165.953 109.018 165.941 108.979 165.915 108.948C165.89 108.918 165.854 108.898 165.814 108.894C165.775 108.89 165.735 108.901 165.704 108.926L162.683 111.435C162.655 111.458 162.637 111.49 162.63 111.525C162.624 111.561 162.63 111.597 162.648 111.628C162.666 111.659 162.694 111.683 162.727 111.695C162.761 111.707 162.798 111.708 162.831 111.696Z" fill="#0A0A0A"/>
<path opacity="0.2" d="M165.494 113.592C165.51 113.586 165.525 113.577 165.538 113.566L167.928 111.614C167.957 111.588 167.975 111.552 167.978 111.512C167.982 111.473 167.969 111.435 167.945 111.404C167.92 111.374 167.884 111.354 167.845 111.35C167.807 111.345 167.767 111.355 167.736 111.379L165.346 113.331C165.319 113.354 165.3 113.385 165.294 113.421C165.287 113.456 165.293 113.492 165.311 113.523C165.328 113.554 165.356 113.578 165.39 113.591C165.423 113.603 165.46 113.603 165.494 113.592Z" fill="#0A0A0A"/>
<path opacity="0.2" d="M168.99 115.229C169.007 115.223 169.024 115.214 169.038 115.202L170.145 114.252C170.16 114.239 170.172 114.223 170.181 114.205C170.19 114.188 170.195 114.168 170.197 114.148C170.198 114.128 170.196 114.108 170.19 114.09C170.183 114.071 170.174 114.053 170.161 114.038C170.148 114.023 170.132 114.011 170.114 114.002C170.096 113.993 170.077 113.987 170.057 113.986C170.037 113.984 170.017 113.987 169.998 113.993C169.979 113.999 169.962 114.009 169.947 114.022L168.84 114.971C168.813 114.995 168.795 115.027 168.789 115.061C168.783 115.096 168.79 115.132 168.808 115.163C168.826 115.194 168.854 115.217 168.887 115.229C168.92 115.241 168.957 115.241 168.99 115.229Z" fill="#0A0A0A"/>
<path d="M224.218 96.7993L224.161 96.5421L214.139 52.2129L194.31 56.6952L202.133 91.2995L170.793 98.9985L174.649 116.684L216.412 108.718C216.507 108.699 216.641 108.671 216.74 108.649C218.009 108.363 219.209 107.828 220.272 107.078C221.335 106.327 222.239 105.374 222.934 104.274C223.628 103.173 224.099 101.947 224.32 100.664C224.54 99.3818 224.506 98.0684 224.218 96.7993Z" fill="#2563EB"/>
<path d="M170.639 99.0307C170.631 98.9912 170.638 98.9499 170.659 98.9157C170.681 98.8814 170.715 98.8568 170.754 98.847L201.953 91.1852L196.879 68.7795C196.87 68.7391 196.878 68.6967 196.9 68.6616C196.922 68.6266 196.957 68.6017 196.997 68.5926C197.038 68.5835 197.08 68.5908 197.115 68.6129C197.15 68.635 197.175 68.6702 197.184 68.7106L202.291 91.2656C202.301 91.3056 202.294 91.3476 202.272 91.3825C202.251 91.4174 202.216 91.4424 202.177 91.4523L170.976 99.1145C170.976 99.1145 171.185 100.026 171.244 100.332C171.247 100.372 171.235 100.411 171.21 100.441C171.185 100.472 171.149 100.491 171.11 100.496C171.071 100.5 171.031 100.49 171 100.466C170.969 100.442 170.948 100.407 170.942 100.368C170.87 100.033 170.639 99.0307 170.639 99.0307Z" fill="#0C0C0C"/>
<path d="M171.862 123.723L159.813 86.6868C159.601 86.0359 159.189 85.4687 158.635 85.0665C158.081 84.6642 157.414 84.4475 156.73 84.4474H107.641C107.13 84.4473 106.625 84.5683 106.169 84.8006C105.713 85.0329 105.319 85.3699 105.018 85.7839C104.717 86.198 104.519 86.6773 104.439 87.1827C104.359 87.6882 104.4 88.2054 104.559 88.692L116.608 125.729C116.819 126.38 117.232 126.947 117.785 127.349C118.339 127.752 119.006 127.968 119.691 127.968H168.78C169.291 127.968 169.796 127.847 170.251 127.614C170.707 127.382 171.101 127.045 171.402 126.631C171.703 126.217 171.901 125.738 171.981 125.232C172.061 124.727 172.02 124.21 171.862 123.723Z" fill="#292A2E"/>
<path opacity="0.2" d="M171.862 123.723L159.813 86.6868C159.601 86.0359 159.189 85.4687 158.635 85.0665C158.081 84.6642 157.414 84.4475 156.73 84.4474H107.641C107.13 84.4473 106.625 84.5683 106.169 84.8006C105.713 85.0329 105.319 85.3699 105.018 85.7839C104.717 86.198 104.519 86.6773 104.439 87.1827C104.359 87.6882 104.4 88.2054 104.559 88.692L116.608 125.729C116.819 126.38 117.232 126.947 117.785 127.349C118.339 127.752 119.006 127.968 119.691 127.968H168.78C169.291 127.968 169.796 127.847 170.251 127.614C170.707 127.382 171.101 127.045 171.402 126.631C171.703 126.217 171.901 125.738 171.981 125.232C172.061 124.727 172.02 124.21 171.862 123.723Z" fill="white"/>
<path d="M136.797 111.355C139.64 111.355 141.945 109.05 141.945 106.207C141.945 103.364 139.64 101.059 136.797 101.059C133.953 101.059 131.648 103.364 131.648 106.207C131.648 109.05 133.953 111.355 136.797 111.355Z" fill="white"/>
</svg>
