<svg width="470" height="356" viewBox="0 0 470 356" fill="none" xmlns="http://www.w3.org/2000/svg">
<g clip-path="url(#clip0_703_452)">
<path d="M141.76 37.4846C141.76 19.8061 132.674 5.66257 115.209 5.66257C99.4496 5.66257 89.4658 20.0141 89.4658 37.4846" fill="#C1D8ED"/>
<path d="M115.209 5.66687C132.658 5.66687 141.731 19.786 141.76 37.4386C141.775 37.5663 141.781 37.6947 141.78 37.8231V206.864C141.76 211.055 142.568 215.209 144.158 219.088C145.748 222.966 148.088 226.491 151.043 229.462C153.999 232.433 157.513 234.791 161.382 236.399C165.251 238.008 169.4 238.836 173.59 238.836C177.78 238.836 181.929 238.008 185.798 236.399C189.667 234.791 193.18 232.433 196.136 229.462C199.092 226.491 201.432 222.966 203.022 219.088C204.611 215.209 205.419 211.055 205.399 206.864H306.715V41.0217C306.715 22.0936 295.791 6.49323 276.871 5.66687H115.209Z" fill="#D7E8F4"/>
<path d="M173.592 238.684H306.715C310.892 238.684 315.029 237.861 318.888 236.262C322.748 234.662 326.254 232.318 329.208 229.364C332.162 226.409 334.505 222.901 336.104 219.04C337.703 215.179 338.526 211.041 338.526 206.862H205.402C205.419 211.046 204.608 215.192 203.016 219.06C201.424 222.929 199.081 226.444 196.124 229.402C193.167 232.361 189.653 234.704 185.786 236.297C181.918 237.89 177.774 238.701 173.592 238.684Z" fill="#C1D8ED"/>
<path d="M190.423 74.0545L258.711 74.0545C261.791 74.0545 264.287 71.5574 264.287 68.477C264.287 65.3966 261.791 62.8994 258.711 62.8994L190.423 62.8994C187.343 62.8994 184.847 65.3966 184.847 68.477C184.847 71.5574 187.343 74.0545 190.423 74.0545Z" fill="#FAFBFC"/>
<path d="M278.22 101.215H170.915C169.603 101.215 168.539 102.279 168.539 103.592V103.593C168.539 104.905 169.603 105.969 170.915 105.969H278.22C279.532 105.969 280.596 104.905 280.596 103.593V103.592C280.596 102.279 279.532 101.215 278.22 101.215Z" fill="#FAFBFC"/>
<path d="M278.22 89.8005H170.915C169.603 89.8005 168.539 90.8645 168.539 92.177V92.1778C168.539 93.4903 169.603 94.5543 170.915 94.5543H278.22C279.532 94.5543 280.596 93.4903 280.596 92.1778V92.177C280.596 90.8645 279.532 89.8005 278.22 89.8005Z" fill="#FAFBFC"/>
<path d="M278.22 112.631H170.915C169.603 112.631 168.539 113.695 168.539 115.007V115.008C168.539 116.321 169.603 117.385 170.915 117.385H278.22C279.532 117.385 280.596 116.321 280.596 115.008V115.007C280.596 113.695 279.532 112.631 278.22 112.631Z" fill="#FAFBFC"/>
<path d="M278.22 124.046H170.915C169.603 124.046 168.539 125.11 168.539 126.423V126.424C168.539 127.736 169.603 128.8 170.915 128.8H278.22C279.532 128.8 280.596 127.736 280.596 126.424V126.423C280.596 125.11 279.532 124.046 278.22 124.046Z" fill="#FAFBFC"/>
<path d="M278.22 135.462H170.915C169.603 135.462 168.539 136.526 168.539 137.838V137.839C168.539 139.152 169.603 140.216 170.915 140.216H278.22C279.532 140.216 280.596 139.152 280.596 137.839V137.838C280.596 136.526 279.532 135.462 278.22 135.462Z" fill="#FAFBFC"/>
<path d="M278.22 158.292H170.915C169.603 158.292 168.539 159.356 168.539 160.669V160.669C168.539 161.982 169.603 163.046 170.915 163.046H278.22C279.532 163.046 280.596 161.982 280.596 160.669V160.669C280.596 159.356 279.532 158.292 278.22 158.292Z" fill="#FAFBFC"/>
<path d="M278.22 146.877H170.915C169.603 146.877 168.539 147.941 168.539 149.254V149.255C168.539 150.567 169.603 151.631 170.915 151.631H278.22C279.532 151.631 280.596 150.567 280.596 149.255V149.254C280.596 147.941 279.532 146.877 278.22 146.877Z" fill="#FAFBFC"/>
<path d="M245.95 169.708H203.184C201.872 169.708 200.809 170.772 200.809 172.084V172.085C200.809 173.397 201.872 174.461 203.184 174.461H245.95C247.262 174.461 248.326 173.397 248.326 172.085V172.084C248.326 170.772 247.262 169.708 245.95 169.708Z" fill="#FAFBFC"/>
<path d="M76.0752 28.2311C76.2903 30.8629 73.5482 33.3133 73.0965 35.7938C72.6289 38.3604 74.3054 41.6199 73.2112 43.9226C72.1019 46.2582 68.505 47.0157 66.8422 48.9732C65.1793 50.9308 65.0108 54.6035 62.8854 56.0748C60.7901 57.5259 57.3037 56.3954 54.8477 57.2705C52.4735 58.1163 50.4979 61.2158 47.8663 61.431C45.2346 61.6462 42.7858 58.9025 40.3062 58.4505C37.7405 57.9828 34.4821 59.66 32.1803 58.5653C29.8455 57.4556 29.0883 53.8575 27.1314 52.194C25.1745 50.5306 21.5031 50.362 20.0324 48.2358C18.5818 46.1398 19.7119 42.6522 18.837 40.1953C17.9916 37.8203 14.8931 35.844 14.678 33.2114C14.4629 30.5789 17.2057 28.1292 17.6575 25.6487C18.125 23.0821 16.4485 19.8226 17.5427 17.52C18.652 15.1843 22.2489 14.4268 23.9118 12.4693C25.5746 10.5117 25.7432 6.83898 27.8686 5.36775C29.9638 3.9166 33.4503 5.0471 35.9062 4.17196C38.2805 3.32624 40.256 0.226675 42.8876 0.0114772C45.5193 -0.20372 47.9681 2.54005 50.4477 2.99196C53.0134 3.45966 56.2718 1.78255 58.5736 2.87719C60.9084 3.9869 61.6685 7.585 63.6225 9.24848C65.5765 10.912 69.2508 11.0805 70.7215 13.2067C72.1722 15.3027 71.0421 18.7903 71.9169 21.2472C72.7623 23.6222 75.8622 25.5985 76.0752 28.2311Z" fill="#0F1011"/>
<path d="M35.8457 56.838C37.2655 54.435 38.7857 49.7795 38.083 41.1357L49.5418 39.0196C49.5418 39.0196 48.2511 52.5054 53.9948 56.838H35.8457Z" fill="#E98862"/>
<path opacity="0.15" d="M51.6892 54.0347L42.1787 46.7431L49.6535 46.6713C49.8676 49.2312 50.558 51.7285 51.6892 54.0347Z" fill="black"/>
<path d="M31.5879 35.2745C32.3767 39.8582 34.8736 44.1994 38.9128 45.6836C43.3159 47.4361 48.0807 48.0846 52.7918 47.5723C65.3341 46.5544 62.8788 18.0257 56.9293 12.4815C50.9797 6.93725 33.5025 10.4285 31.3685 19.6949C30.2649 24.4845 30.8343 30.9117 31.5879 35.2745Z" fill="#E98862"/>
<path d="M49.5322 31.7603C50.106 31.7603 50.5712 31.2949 50.5712 30.7209C50.5712 30.1469 50.106 29.6815 49.5322 29.6815C48.9584 29.6815 48.4932 30.1469 48.4932 30.7209C48.4932 31.2949 48.9584 31.7603 49.5322 31.7603Z" fill="#0F1011"/>
<path d="M57.7304 31.0953C58.3043 31.0953 58.7695 30.63 58.7695 30.0559C58.7695 29.4819 58.3043 29.0165 57.7304 29.0165C57.1566 29.0165 56.6914 29.4819 56.6914 30.0559C56.6914 30.63 57.1566 31.0953 57.7304 31.0953Z" fill="#0F1011"/>
<path d="M59.5329 27.843H59.5264L56.7743 27.8057C56.6481 27.8001 56.529 27.7458 56.442 27.6542C56.3549 27.5626 56.3068 27.4408 56.3076 27.3144C56.3085 27.1881 56.3582 27.067 56.4464 26.9765C56.5347 26.8861 56.6545 26.8333 56.7807 26.8294H56.7872L59.5393 26.866C59.6688 26.8668 59.7927 26.9191 59.8837 27.0114C59.9746 27.1036 60.0253 27.2282 60.0244 27.3577C60.0236 27.4873 59.9713 27.6112 59.8791 27.7022C59.7869 27.7932 59.6624 27.8438 59.5329 27.843Z" fill="#0F1011"/>
<path d="M47.2911 28.8365C47.1717 28.836 47.0567 28.7918 46.9677 28.7123C46.8787 28.6327 46.8219 28.5233 46.808 28.4047C46.7941 28.2861 46.8242 28.1665 46.8924 28.0686C46.9607 27.9707 47.0625 27.9011 47.1785 27.8731L49.8926 27.2225C49.9557 27.2054 50.0215 27.2012 50.0862 27.21C50.151 27.2189 50.2132 27.2406 50.2694 27.274C50.3256 27.3074 50.3745 27.3517 50.4133 27.4043C50.452 27.4569 50.4798 27.5168 50.495 27.5803C50.5102 27.6439 50.5125 27.7098 50.5018 27.7743C50.4911 27.8387 50.4675 27.9004 50.4326 27.9556C50.3976 28.0108 50.3519 28.0584 50.2982 28.0956C50.2445 28.1328 50.1839 28.1589 50.1199 28.1722L47.4058 28.8229C47.3682 28.832 47.3297 28.8366 47.2911 28.8365Z" fill="#0F1011"/>
<path d="M50.0059 38.9077C50.0059 38.9077 53.8408 39.3159 56.5312 38.3783C56.5312 38.3783 56.5076 40.9055 53.4729 41.1515C50.4383 41.3976 50.0059 38.9077 50.0059 38.9077Z" fill="#F8FCFF"/>
<path d="M40.0368 23.4092C40.7895 34.1504 39.6076 44.9395 36.5475 55.2628C36.5475 55.2628 27.8043 40.181 26.4519 27.6242C25.1841 15.8529 33.8614 8.91062 39.7206 7.60365C61.9864 2.64621 63.5891 18.9166 63.5891 18.9166C59.5326 27.3545 37.6267 27.3172 37.6267 27.3172" fill="#0F1011"/>
<path d="M44.2827 35.1963C44.3632 36.3534 43.9844 37.4957 43.2284 38.3752C42.4724 39.2547 41.4002 39.8006 40.2444 39.8943C39.0887 39.9881 37.9426 39.6222 37.0548 38.876C36.167 38.1299 35.6091 37.0636 35.5022 35.9086C35.4454 35.3299 35.5056 34.7458 35.6792 34.1909C35.8528 33.636 36.1362 33.1217 36.5126 32.6787C36.8891 32.2356 37.3508 31.8729 37.8703 31.6121C38.3897 31.3513 38.9564 31.1978 39.5364 31.1606C42.6758 31.0602 44.0863 32.771 44.2827 35.1963Z" fill="#E98862"/>
<g opacity="0.15">
<path d="M54.1393 36.4903C54.0535 36.4902 53.9705 36.4593 53.9055 36.4032C53.8406 36.3471 53.7979 36.2696 53.7852 36.1846C53.7725 36.0997 53.7907 36.0131 53.8365 35.9404C53.8822 35.8678 53.9525 35.814 54.0346 35.7888L56.1478 35.1432L54.6735 31.8492C54.6346 31.7624 54.6318 31.6637 54.6657 31.5747C54.6996 31.4858 54.7674 31.414 54.8542 31.3751C54.941 31.3362 55.0397 31.3334 55.1286 31.3673C55.2175 31.4012 55.2893 31.469 55.3282 31.5559L56.9696 35.2214C56.9903 35.2678 57.0009 35.318 57.0008 35.3689C57.0006 35.4197 56.9896 35.4699 56.9686 35.5161C56.9476 35.5624 56.917 35.6036 56.8789 35.6371C56.8407 35.6707 56.7958 35.6957 56.7473 35.7106L54.2454 36.4767C54.2109 36.4865 54.1752 36.4911 54.1393 36.4903Z" fill="black"/>
</g>
<path d="M74.0843 156.646C88.3899 219.69 101.344 283.158 111.566 347L97.1963 349.957C81.3985 287.263 68.2567 223.833 56.5254 160.259L74.0843 156.646Z" fill="#E98862"/>
<path d="M44.5141 160.551C45.8278 223.182 45.7332 285.955 42.8857 348.543H28.2151C25.369 285.955 25.2751 223.181 26.5873 160.551H44.5141Z" fill="#E98862"/>
<path d="M61.8663 354.33C62.2713 354.328 62.6715 354.243 63.0419 354.079C63.4123 353.915 63.7451 353.677 64.0194 353.379C64.2936 353.081 64.5035 352.729 64.636 352.347C64.7684 351.964 64.8205 351.558 64.7891 351.154C64.7459 350.594 64.5434 350.057 64.2056 349.608C63.8678 349.16 63.4086 348.817 62.8824 348.62L45.3557 342.748C45.0161 342.635 44.6562 342.597 44.3006 342.637C43.945 342.676 43.6021 342.792 43.2956 342.977C40.8862 344.649 38.0041 345.504 35.0729 345.416C32.7896 345.254 30.5979 344.453 28.7476 343.105C28.585 342.971 28.3879 342.887 28.1791 342.861C27.9703 342.835 27.7586 342.87 27.5686 342.96C27.3786 343.05 27.2182 343.193 27.1061 343.371C26.994 343.549 26.9349 343.755 26.9356 343.965V352.539C26.9355 352.792 26.9853 353.042 27.0823 353.276C27.1793 353.51 27.3214 353.722 27.5006 353.9C27.6798 354.079 27.8924 354.22 28.1264 354.316C28.3603 354.412 28.6109 354.461 28.8638 354.46L61.8663 354.33Z" fill="#C1D8ED"/>
<path d="M129.079 354.33C129.484 354.328 129.884 354.243 130.255 354.079C130.625 353.915 130.958 353.677 131.232 353.379C131.507 353.081 131.717 352.73 131.849 352.347C131.981 351.964 132.034 351.558 132.002 351.154C131.959 350.594 131.756 350.058 131.419 349.609C131.081 349.16 130.622 348.817 130.096 348.62L112.569 342.748C112.229 342.635 111.869 342.597 111.514 342.637C111.158 342.676 110.816 342.792 110.509 342.977C108.099 344.649 105.217 345.504 102.286 345.416C100.003 345.254 97.8112 344.453 95.9612 343.105C95.7986 342.971 95.6014 342.887 95.3926 342.861C95.1838 342.836 94.9721 342.87 94.7821 342.96C94.592 343.05 94.4316 343.193 94.3194 343.371C94.2072 343.549 94.1479 343.755 94.1484 343.965V352.539C94.1484 352.792 94.1984 353.042 94.2954 353.276C94.3924 353.509 94.5345 353.722 94.7137 353.9C94.8928 354.079 95.1055 354.22 95.3394 354.316C95.5732 354.412 95.8238 354.461 96.0766 354.46L129.079 354.33Z" fill="#C1D8ED"/>
<path d="M17.4966 133.511C17.4966 133.511 9.35062 170.002 9.35062 200.691C9.35062 231.38 0 278.911 0 278.911C0 278.911 26.508 274.622 44.49 278.911C75.474 286.301 103.258 270.209 103.258 270.209L72.0514 136.879L17.4966 133.511Z" fill="#262626"/>
<path d="M158.509 99.3431C158.509 99.3431 164.396 96.4817 168.817 97.5799C173.237 98.6782 171.167 100.581 167.949 101.258C164.732 101.936 157.664 103.037 157.664 103.037" fill="#E98862"/>
<path d="M161.948 99.2061C161.948 99.2061 172.861 98.0584 172.974 100.685C172.974 100.685 173.452 108.787 171.97 110.041C169.732 111.931 158.647 110.451 158.647 110.451L161.948 99.2061Z" fill="#E98862"/>
<path d="M133.1 112.597H90.4488C89.1861 112.597 87.9436 112.279 86.8358 111.673C85.728 111.067 84.7903 110.192 84.1092 109.128L57.1602 67.0441L69.843 58.919L94.5705 97.5333H133.102L133.1 112.597Z" fill="#2563EB"/>
<path d="M75.508 138.27C72.5035 145.177 13.4669 148.047 12.6781 135.895C12.1762 128.162 18.9884 121.412 18.9884 106.341C18.9884 91.2703 5.1288 72.0238 16.4213 60.7259C19.6983 57.4484 25.356 55.3323 32.2542 55.3252C32.7705 59.3486 57.194 59.3637 57.3804 55.4184C58.3126 55.4328 59.0369 55.4464 59.4886 55.4686C83.2811 56.4944 72.8262 83.5806 72.5967 103.479C72.3185 126.764 78.6072 131.154 75.508 138.27Z" fill="#2563EB"/>
<path d="M57.3821 55.4184C57.1956 59.3637 55.0516 65.1661 48.433 65.6044C39.613 66.1855 32.7722 59.3486 32.2559 55.3252H32.2774C40.9611 55.3252 52.3195 55.3395 57.3821 55.4184Z" fill="#E98862"/>
<path d="M126.838 148.105C150.6 148.105 169.862 128.835 169.862 105.065C169.862 81.2951 150.6 62.0257 126.838 62.0257C103.076 62.0257 83.8135 81.2951 83.8135 105.065C83.8135 128.835 103.076 148.105 126.838 148.105Z" fill="#0CBC8B"/>
<g opacity="0.29">
<path d="M126.838 132.966C142.241 132.966 154.729 120.475 154.729 105.065C154.729 89.6559 142.241 77.1641 126.838 77.1641C111.434 77.1641 98.9463 89.6559 98.9463 105.065C98.9463 120.475 111.434 132.966 126.838 132.966Z" fill="white"/>
</g>
<path d="M117.709 115.032L120.311 110.995C122.373 112.573 124.176 113.383 126.095 113.383C128.394 113.383 129.406 112.429 129.406 110.581C129.406 106.406 118.697 106.481 118.697 99.158C118.697 94.4502 121.957 91.4518 127.098 91.4518C128.558 91.4308 130.005 91.7278 131.338 92.3224C132.672 92.917 133.86 93.7948 134.82 94.895L131.836 98.3145C130.362 96.9731 129.111 96.2665 127.417 96.2665C125.466 96.2665 124.406 97.0556 124.406 98.8769C124.406 102.75 135.114 102.409 135.114 110.166C135.114 114.829 132.031 118.2 126.094 118.2C123.02 118.13 120.062 117.012 117.709 115.032ZM124.844 87.4743H128.801V93.319H124.843L124.844 87.4743ZM124.844 115.761H128.801V122.173H124.843L124.844 115.761Z" fill="white"/>
<path d="M171.966 110.046C171.765 110.206 171.54 110.334 171.3 110.425C170.014 110.69 166.772 109.914 166.252 109.015C165.406 107.551 165.931 102.261 166.677 100.342C167.378 98.5483 170.867 99.2994 171.325 99.3847C171.339 99.3898 171.354 99.3936 171.369 99.3962C172.32 99.6573 172.946 100.065 172.973 100.691C172.973 100.691 173.453 108.79 171.966 110.046Z" fill="#E98862"/>
<path d="M76.9678 114.936C76.9678 114.936 78.6952 105.501 85.3683 107.143C89.5782 108.179 101.814 106.33 101.999 111.738C102.161 116.431 90.6696 117.682 86.8691 117.291C83.458 116.94 76.9678 114.936 76.9678 114.936Z" fill="#E98862"/>
<path d="M82.9248 107.039C82.9248 107.039 92.8512 105.574 95.0684 106.517C97.0318 107.351 92.2001 109.96 92.2001 109.96L82.9248 107.039Z" fill="#E98862"/>
<path d="M86.0997 120.176L41.7273 118.822C40.3424 118.78 38.9935 118.37 37.8189 117.635C36.6443 116.9 35.6862 115.865 35.0428 114.638L13.1348 72.8501L26.9814 65.5858L46.7683 103.328L86.5766 104.543L86.0997 120.176Z" fill="#2563EB"/>
<path d="M337.699 348.239L352.652 346.46C351.978 340.798 351.218 333.997 351.166 332.882C351.166 332.954 351.166 333.013 351.166 333.058H336.107C336.11 333.51 336.11 334.884 337.699 348.239Z" fill="#E98862"/>
<path d="M397.7 350.04L412.758 349.991C412.758 349.991 412.708 334.436 412.708 333.058H397.649C397.649 334.44 397.7 350.04 397.7 350.04Z" fill="#E98862"/>
<path d="M332.144 343.03C333.389 311.462 333.465 278.305 333.855 246.653C339.032 212.513 341.757 175.069 348.149 141.17L348.341 141.226L348.902 137.403L403.454 134.032L405.373 169.683C408.119 217.442 413.428 294.221 416.64 342.621L390.202 344.861C385.48 297.26 378.498 221.428 374.231 174.512C369.549 198.418 364.417 225.339 360.259 249.529C359.349 280.43 358.588 312.631 358.671 343.483L332.144 343.03Z" fill="#262626"/>
<path d="M379.394 355.865C378.989 355.863 378.588 355.778 378.218 355.614C377.847 355.451 377.515 355.213 377.24 354.915C376.966 354.617 376.756 354.265 376.624 353.882C376.491 353.499 376.439 353.093 376.471 352.69C376.514 352.13 376.717 351.594 377.055 351.145C377.393 350.697 377.852 350.354 378.378 350.158L395.904 344.285C396.244 344.173 396.604 344.135 396.959 344.175C397.314 344.214 397.657 344.33 397.964 344.515C400.373 346.187 403.256 347.042 406.187 346.954C408.47 346.791 410.662 345.991 412.512 344.643C412.675 344.509 412.872 344.425 413.081 344.399C413.29 344.373 413.501 344.408 413.691 344.498C413.881 344.588 414.042 344.731 414.154 344.909C414.266 345.087 414.325 345.293 414.324 345.503V354.079C414.324 354.332 414.274 354.582 414.177 354.816C414.08 355.05 413.938 355.262 413.759 355.44C413.58 355.619 413.367 355.76 413.133 355.856C412.9 355.952 412.649 356.001 412.396 356L379.394 355.865Z" fill="#C1D8ED"/>
<path d="M319.351 355.865C318.946 355.863 318.546 355.778 318.176 355.614C317.805 355.451 317.472 355.213 317.198 354.915C316.923 354.617 316.713 354.265 316.581 353.882C316.449 353.5 316.396 353.093 316.428 352.69C316.472 352.13 316.674 351.594 317.012 351.146C317.35 350.697 317.809 350.355 318.335 350.158L335.862 344.285C336.201 344.173 336.561 344.135 336.917 344.175C337.272 344.214 337.615 344.33 337.921 344.515C340.331 346.187 343.213 347.042 346.145 346.954C348.428 346.791 350.619 345.99 352.469 344.643C352.632 344.509 352.829 344.425 353.038 344.399C353.247 344.373 353.458 344.408 353.648 344.498C353.838 344.588 353.999 344.731 354.111 344.909C354.223 345.087 354.282 345.293 354.281 345.503V354.079C354.281 354.332 354.231 354.582 354.134 354.816C354.038 355.049 353.895 355.261 353.716 355.44C353.537 355.618 353.325 355.76 353.091 355.856C352.857 355.952 352.607 356.001 352.354 356L319.351 355.865Z" fill="#C1D8ED"/>
<path d="M382.498 186.099V232.693C382.498 234.57 383.243 236.37 384.57 237.698C385.897 239.025 387.696 239.771 389.573 239.771H462.926C464.802 239.771 466.601 239.025 467.928 237.698C469.255 236.37 470 234.57 470 232.693V186.099C470 184.222 469.255 182.422 467.928 181.094C466.601 179.767 464.802 179.021 462.926 179.021H443.538V174.104C443.536 172.35 442.839 170.669 441.599 169.428C440.359 168.188 438.678 167.49 436.925 167.488H415.573C413.82 167.49 412.139 168.188 410.899 169.428C409.659 170.669 408.962 172.35 408.959 174.104V179.021H389.573C387.696 179.021 385.897 179.767 384.57 181.094C383.243 182.422 382.498 184.222 382.498 186.099ZM439.236 179.021H413.262V174.104C413.263 173.491 413.506 172.904 413.94 172.47C414.373 172.037 414.96 171.793 415.573 171.792H436.925C437.537 171.793 438.125 172.037 438.558 172.47C438.991 172.904 439.235 173.491 439.236 174.104V179.021Z" fill="#0CBC8B"/>
<path d="M283.53 118.729C281.451 119.216 274.236 119.747 274.154 121.631C274.103 122.761 279.58 122.798 279.58 122.798" fill="#E98862"/>
<path d="M279.463 132.588C288.064 130.573 294.464 126.496 293.758 123.482C293.052 120.469 285.508 119.659 276.908 121.674C268.308 123.69 261.908 127.766 262.614 130.78C263.319 133.794 270.863 134.603 279.463 132.588Z" fill="#E98862"/>
<path d="M419.473 158.451C419.473 160.589 418.344 167.736 420.159 168.247C421.247 168.552 422.533 163.225 422.533 163.225" fill="#E98862"/>
<path d="M428.04 157.33C428.04 157.33 434.177 163.945 430.006 171.792C429.427 172.88 423.787 173.52 423.787 172.186C423.787 166.591 423.353 162.202 419.669 163.544V154.531" fill="#E98862"/>
<path d="M320.961 102.833L347.664 62.9159L347.821 63.0213C350.116 59.5201 354.056 57.2827 360.567 57.0044C361.018 56.9829 361.742 56.9685 362.675 56.9542C362.86 60.8995 387.284 60.8851 387.801 56.8609C394.698 56.8681 400.356 58.9842 403.634 62.2624C405.158 63.7717 406.327 65.6013 407.056 67.6187L407.143 67.5799L424.476 106.62C424.777 107.298 424.98 108.015 425.079 108.751L431.813 158.841L416.318 160.925L409.735 111.945L402.905 96.5613C401.81 100.239 401.193 104.042 401.069 107.877C401.069 122.948 407.881 129.698 407.379 137.431C406.59 149.582 347.554 146.713 344.55 139.805C341.452 132.689 347.74 128.299 347.461 105.015C347.348 100.929 347.024 96.851 346.49 92.7982L332.526 113.672C331.596 115.063 330.245 116.119 328.672 116.685L284.961 132.395L279.676 117.674L320.961 102.833Z" fill="#2563EB"/>
<path d="M362.678 56.9556C362.863 60.9009 365.008 66.7041 371.627 67.1417C380.447 67.7227 387.287 60.8866 387.804 56.8624H387.782C379.099 56.8609 367.74 56.8753 362.678 56.9556Z" fill="#E98862"/>
<path d="M381.721 47.5515C381.694 45.9333 381.751 44.3147 381.893 42.7024C379.968 42.3437 372.491 40.9607 370.434 40.5791C370.832 41.9858 370.472 52.623 368.283 55.5784C367.738 56.6389 366.976 57.5725 366.046 58.3186H384.064C382.947 56.3961 381.799 53.0821 381.721 47.5515Z" fill="#E98862"/>
<path opacity="0.15" d="M368.273 55.5884L377.79 48.3047L370.316 48.2272C370.099 50.7868 369.407 53.2834 368.273 55.5884Z" fill="black"/>
<path d="M388.391 36.8461C386.932 47.6232 376.539 49.9294 367.176 49.1246C354.635 48.096 357.116 19.5708 363.07 14.0287C369.024 8.48668 386.502 11.9965 388.625 21.2644C389.724 26.0576 389.146 32.4841 388.391 36.8461Z" fill="#E98862"/>
<path d="M354.298 11.3804C354.29 7.57854 359.041 1.38874 371.6 9.95289C378.488 10.0784 382.483 10.445 387.55 14.2274C398.687 21.8347 389.009 45.7008 382.309 47.3872C381.624 47.7954 381.457 47.4633 381.219 46.7008C380.471 43.883 379.936 41.0131 379.618 38.1151C379.209 35.1023 376.502 33.1871 376.829 29.5789C376.944 28.3179 378.974 23.6968 372.69 23.6445C358.974 24.5605 352.761 22.4401 354.298 11.3804Z" fill="#0F1011"/>
<path d="M375.856 34.8204C375.306 40.511 384.253 41.2455 384.636 35.5377C385.295 29.6628 375.719 29.2461 375.856 34.8204Z" fill="#E98862"/>
<path d="M377.791 20.8426L381.035 22.0305C380.045 24.7506 381.791 49.8842 372.652 50.2343C360.386 51.7536 358.185 48.0479 358.644 38.3626C377.433 40.4945 376.026 37.803 377.791 20.8426Z" fill="#0F1011"/>
<path d="M369.416 32.1921C369.403 32.4619 369.495 32.7264 369.672 32.9297C369.85 33.1329 370.1 33.2589 370.369 33.2809C370.639 33.3029 370.906 33.2192 371.114 33.0476C371.323 32.876 371.456 32.6299 371.487 32.3614C371.5 32.0916 371.408 31.8271 371.231 31.6239C371.053 31.4206 370.803 31.2947 370.534 31.2727C370.264 31.2507 369.997 31.3343 369.789 31.506C369.58 31.6776 369.447 31.9237 369.416 32.1921Z" fill="#0F1011"/>
<path d="M361.219 31.5193C361.201 31.7918 361.29 32.0606 361.468 32.2676C361.646 32.4746 361.899 32.6032 362.171 32.6255C362.443 32.6478 362.713 32.5622 362.922 32.387C363.132 32.2118 363.264 31.9611 363.29 31.6893C363.309 31.4168 363.219 31.148 363.041 30.941C362.863 30.734 362.611 30.6054 362.338 30.5831C362.066 30.5607 361.796 30.6464 361.587 30.8216C361.377 30.9968 361.245 31.2474 361.219 31.5193Z" fill="#0F1011"/>
<path d="M360.455 29.3895C360.455 29.3895 363.21 29.3544 363.212 29.3551C363.339 29.3489 363.458 29.294 363.544 29.2019C363.631 29.1097 363.679 28.9876 363.677 28.8611C363.675 28.7346 363.625 28.6137 363.536 28.5237C363.447 28.4338 363.327 28.3818 363.2 28.3788L360.448 28.4133C360.322 28.4189 360.203 28.4732 360.116 28.5648C360.029 28.6564 359.981 28.7781 359.981 28.9045C359.982 29.0309 360.032 29.152 360.12 29.2424C360.208 29.3329 360.328 29.3856 360.455 29.3895Z" fill="#0F1011"/>
<path d="M372.695 30.3931C374.671 29.4333 370.529 28.9692 370.095 28.7769C369.97 28.7499 369.84 28.7728 369.731 28.8408C369.623 28.9087 369.546 29.0162 369.516 29.1403C369.487 29.2644 369.507 29.3953 369.572 29.5049C369.637 29.6145 369.743 29.6941 369.867 29.7267C370.002 29.7439 372.554 30.4024 372.695 30.3931Z" fill="#0F1011"/>
<g opacity="0.15">
<path d="M365.839 38.0419C367.313 37.3777 364.118 36.872 363.831 36.6912L365.309 33.398C365.036 31.1613 363.19 36.6661 363.014 36.7694C362.676 37.496 365.517 37.8224 365.839 38.0419Z" fill="black"/>
</g>
<path d="M369.97 40.4629C369.97 40.4629 366.135 40.8675 363.445 39.9278C363.334 43.226 369.552 43.7239 369.97 40.4629Z" fill="#F8FCFF"/>
<path d="M306.716 62.0443C319.428 62.0443 329.732 51.7358 329.732 39.0196C329.732 26.3034 319.428 15.9949 306.716 15.9949C294.004 15.9949 283.699 26.3034 283.699 39.0196C283.699 51.7358 294.004 62.0443 306.716 62.0443Z" fill="#8DDBE0"/>
<path d="M303.322 48.4604C302.927 48.4603 302.546 48.3092 302.258 48.0378L294.735 40.9363C294.587 40.7965 294.468 40.6289 294.385 40.4431C294.301 40.2573 294.256 40.0568 294.25 39.8532C294.244 39.6496 294.278 39.4469 294.35 39.2565C294.423 39.0662 294.532 38.892 294.672 38.7438C294.812 38.5957 294.979 38.4765 295.165 38.3932C295.351 38.3098 295.551 38.2639 295.755 38.258C295.958 38.2521 296.161 38.2864 296.351 38.3588C296.541 38.4313 296.716 38.5405 296.864 38.6803L303.237 44.6965L316.49 30.0868C316.769 29.7944 317.152 29.6227 317.556 29.6084C317.96 29.5941 318.354 29.7383 318.653 30.0102C318.952 30.2821 319.133 30.6603 319.158 31.064C319.183 31.4677 319.049 31.8651 318.784 32.1713L304.469 47.9525C304.33 48.1051 304.162 48.2286 303.976 48.3158C303.789 48.403 303.586 48.4521 303.38 48.4604H303.322Z" fill="white"/>
</g>
<defs>
<clipPath id="clip0_703_452">
<rect width="470" height="356" fill="white"/>
</clipPath>
</defs>
</svg>
